<svg width="24" height="24" viewBox="0 0 24 24" fill="none" xmlns="http://www.w3.org/2000/svg">
<path d="M12.0005 1.40039C17.8547 1.40039 22.6001 6.14578 22.6001 12C22.6001 17.8543 17.8547 22.5996 12.0005 22.5996C6.14627 22.5996 1.40088 17.8543 1.40088 12C1.40088 6.14578 6.14627 1.40039 12.0005 1.40039ZM12.0005 2.59961C6.80902 2.59961 2.6001 6.80853 2.6001 12C2.6001 17.1914 6.80902 21.4004 12.0005 21.4004C17.1919 21.4004 21.4009 17.1914 21.4009 12C21.4009 6.80853 17.1919 2.59961 12.0005 2.59961Z" fill="#A1A1A1" stroke="#A1A1A1" stroke-width="0.3"/>
<path d="M12.6006 9.40039V16.8496H11.4014V10.5996H10.1514V9.40039H12.6006ZM12.6006 6.65039V7.84961H11.4014V6.65039H12.6006Z" fill="#A1A1A1" stroke="#A1A1A1" stroke-width="0.3"/>
</svg>
