<svg width="60" height="60" viewBox="0 0 60 60" fill="none" xmlns="http://www.w3.org/2000/svg">
<path d="M54.3251 44.9996L34.3251 9.99958C33.889 9.2301 33.2566 8.59005 32.4924 8.14476C31.7282 7.69946 30.8595 7.46484 29.9751 7.46484C29.0906 7.46484 28.222 7.69946 27.4578 8.14476C26.6936 8.59005 26.0612 9.2301 25.6251 9.99958L5.62507 44.9996C5.18427 45.763 4.95314 46.6293 4.95509 47.5109C4.95704 48.3924 5.19201 49.2577 5.63618 50.0191C6.08035 50.7806 6.71794 51.4111 7.48431 51.8467C8.25067 52.2823 9.11859 52.5075 10.0001 52.4996H50.0001C50.8773 52.4987 51.7389 52.267 52.4983 51.8278C53.2577 51.3886 53.8881 50.7573 54.3263 49.9974C54.7646 49.2374 54.9952 48.3756 54.9949 47.4983C54.9947 46.6211 54.7637 45.7593 54.3251 44.9996Z" stroke="#CF9702" stroke-width="3.33333" stroke-linecap="round" stroke-linejoin="round"/>
<path d="M30 22.5V32.5" stroke="#CF9702" stroke-width="3.33333" stroke-linecap="round" stroke-linejoin="round"/>
<path d="M30 42.5H30.0253" stroke="#CF9702" stroke-width="3.33333" stroke-linecap="round" stroke-linejoin="round"/>
</svg>
