<svg width="25" height="24" viewBox="0 0 25 24" fill="none" xmlns="http://www.w3.org/2000/svg">
<path d="M17.498 0.849609C18.4026 0.849609 19.1501 1.59259 19.1504 2.49805V13.4971C19.1504 14.4023 18.4032 15.1494 17.498 15.1494H7.19531L4.5 18.4131C4.41487 18.5163 4.2999 18.5915 4.1709 18.627C4.04204 18.6623 3.90509 18.6564 3.7793 18.6113C3.65349 18.5662 3.5448 18.4833 3.46777 18.374C3.39077 18.2648 3.34888 18.1346 3.34863 18.001V15.1494H2.49805C1.59259 15.1492 0.849609 14.4016 0.849609 13.4971V2.49805C0.849871 1.59323 1.59323 0.84987 2.49805 0.849609H17.498ZM2.49805 2.15039C2.29565 2.15062 2.15062 2.29565 2.15039 2.49805V13.4971C2.15039 13.7012 2.29694 13.8494 2.49805 13.8496H4.00098L4.12793 13.8623C4.25231 13.8875 4.36794 13.949 4.45898 14.04C4.58013 14.1613 4.64876 14.3256 4.64941 14.4971V16.1875L6.3877 14.085L6.43652 14.0322C6.48763 13.9828 6.54675 13.9416 6.61133 13.9111C6.69746 13.8706 6.79153 13.8498 6.88672 13.8496H17.498C17.7009 13.8496 17.8506 13.6999 17.8506 13.4971V2.49805C17.8504 2.29694 17.7022 2.15039 17.498 2.15039H2.49805Z" fill="#A1A1A1" stroke="#A1A1A1" stroke-width="0.3"/>
<path d="M10.1484 18.001C10.1485 18.2021 10.2959 18.3485 10.5 18.3486H17.3877C17.4789 18.3486 17.569 18.3682 17.6523 18.4053C17.694 18.4239 17.7338 18.4469 17.7705 18.4736L17.8721 18.5654L19.8506 20.79V18.9971L19.8633 18.8701C19.8885 18.7457 19.95 18.6301 20.041 18.5391C20.1622 18.4179 20.3267 18.3494 20.498 18.3486H22.5C22.7025 18.3484 22.8476 18.2035 22.8477 18.001V8.5C22.8475 8.29605 22.701 8.14867 22.5 8.14844H18.498C18.3265 8.14785 18.1623 8.07922 18.041 7.95801C17.9198 7.83676 17.8513 7.67244 17.8506 7.50098C17.8502 7.41574 17.8662 7.33085 17.8984 7.25195C17.9308 7.17294 17.9789 7.10064 18.0391 7.04004C18.0991 6.97957 18.1704 6.93137 18.249 6.89844C18.3278 6.86548 18.4127 6.84795 18.498 6.84766H22.5C23.4054 6.84792 24.1483 7.59556 24.1484 8.5V18.001C24.1483 18.9059 23.4049 19.6492 22.5 19.6494H21.1514V22.5L21.1436 22.5977C21.1289 22.6949 21.0924 22.7884 21.0361 22.8701C20.9612 22.9787 20.8548 23.0616 20.7314 23.1084C20.608 23.1553 20.4729 23.1635 20.3447 23.1318C20.2488 23.1081 20.1602 23.0627 20.085 23L20.0137 22.9316L17.0957 19.6494H10.5C9.59547 19.6493 8.84777 18.9065 8.84766 18.001V14.4971C8.84801 14.4119 8.86557 14.3276 8.89844 14.249C8.93139 14.1703 8.97944 14.0982 9.04004 14.0381C9.10061 13.978 9.173 13.9308 9.25195 13.8984C9.33089 13.8661 9.41568 13.8493 9.50098 13.8496C9.67243 13.8503 9.83676 13.9188 9.95801 14.04C10.0793 14.1613 10.1477 14.3256 10.1484 14.4971V18.001Z" fill="#A1A1A1" stroke="#A1A1A1" stroke-width="0.3"/>
<path d="M9.99902 2.84961C11.8706 2.84962 13.4004 4.37598 13.4004 6.24805C13.4004 7.88443 12.1675 9.08569 10.6514 9.40918V10.501C10.651 10.5862 10.6335 10.6704 10.6006 10.749C10.5676 10.8278 10.5196 10.8998 10.459 10.96C10.3984 11.02 10.326 11.0673 10.2471 11.0996C10.1681 11.1319 10.0833 11.1488 9.99805 11.1484C9.8266 11.1477 9.66226 11.0792 9.54102 10.958C9.41977 10.8368 9.3513 10.6724 9.35059 10.501V8.99707C9.35124 8.82559 9.41979 8.66133 9.54102 8.54004C9.66226 8.41879 9.82659 8.35033 9.99805 8.34961H9.99902C11.1647 8.3496 12.1006 7.41376 12.1006 6.24805C12.1006 5.08233 11.1647 4.14649 9.99902 4.14648C8.83362 4.14648 7.90137 5.082 7.90137 6.24805C7.90162 6.33363 7.88514 6.41891 7.85254 6.49805C7.81987 6.57725 7.77152 6.64938 7.71094 6.70996C7.65039 6.77047 7.57815 6.81794 7.49902 6.85059C7.41981 6.88321 7.33469 6.90068 7.24902 6.90039C7.16364 6.9001 7.07877 6.88257 7 6.84961C6.92137 6.8167 6.85012 6.76848 6.79004 6.70801C6.72988 6.64741 6.68179 6.5751 6.64941 6.49609C6.61713 6.41718 6.60025 6.33233 6.60059 6.24707C6.60111 4.37566 8.1275 2.84961 9.99902 2.84961Z" fill="#A1A1A1" stroke="#A1A1A1" stroke-width="0.3"/>
<path d="M10.5 12.498C10.5 12.5637 10.4871 12.6287 10.4619 12.6894C10.4368 12.7501 10.4 12.8052 10.3536 12.8516C10.3071 12.898 10.252 12.9349 10.1913 12.96C10.1307 12.9851 10.0657 12.9981 10 12.9981C9.93434 12.9981 9.86932 12.9851 9.80865 12.96C9.74799 12.9349 9.69287 12.898 9.64644 12.8516C9.60001 12.8052 9.56318 12.7501 9.53806 12.6894C9.51293 12.6287 9.5 12.5637 9.5 12.498C9.5 12.3654 9.55268 12.2383 9.64645 12.1445C9.74022 12.0507 9.86739 11.998 10 11.998C10.1326 11.998 10.2598 12.0507 10.3535 12.1445C10.4473 12.2383 10.5 12.3654 10.5 12.498Z" fill="#A1A1A1"/>
</svg>
