<svg width="26" height="24" viewBox="0 0 26 24" fill="none" xmlns="http://www.w3.org/2000/svg">
<path d="M23.6921 12.2336C23.6921 11.3702 23.6189 10.7402 23.4604 10.0869H13.1548V13.9835H19.204C19.082 14.9519 18.4235 16.4102 16.9599 17.3902L16.9394 17.5206L20.1978 19.9354L20.4236 19.9569C22.4969 18.1252 23.6921 15.4302 23.6921 12.2336Z" fill="#F65536"/>
<path d="M13.1542 22.4996C16.1178 22.4996 18.6057 21.5662 20.423 19.9562L16.9593 17.3895C16.0325 18.0078 14.7884 18.4395 13.1542 18.4395C10.2516 18.4395 7.78803 16.6079 6.90983 14.0762L6.78111 14.0866L3.39294 16.595L3.34863 16.7128C5.15362 20.1428 8.8612 22.4996 13.1542 22.4996Z" fill="#34A853"/>
<path d="M6.91022 14.0765C6.6785 13.4232 6.5444 12.7231 6.5444 11.9998C6.5444 11.2764 6.6785 10.5765 6.89803 9.92313L6.89189 9.78398L3.46125 7.23535L3.34901 7.28642C2.60509 8.70977 2.17822 10.3081 2.17822 11.9998C2.17822 13.6915 2.60509 15.2897 3.34901 16.7131L6.91022 14.0765Z" fill="#FBBC05"/>
<path d="M13.1543 5.55997C15.2154 5.55997 16.6057 6.41163 17.3985 7.12335L20.4962 4.23C18.5937 2.53834 16.1179 1.5 13.1543 1.5C8.86123 1.5 5.15363 3.85665 3.34863 7.28662L6.89766 9.92332C7.78805 7.39166 10.2516 5.55997 13.1543 5.55997Z" fill="#EB4335"/>
</svg>
