<svg width="16" height="16" viewBox="0 0 16 16" fill="none" xmlns="http://www.w3.org/2000/svg">
<path d="M7.96968 15.9998C6.62833 16.0085 5.30685 15.6755 4.1297 15.0324C4.10612 15.0226 4.08083 15.0175 4.05528 15.0175C4.02974 15.0175 4.00445 15.0226 3.98087 15.0324L1.3539 15.7766C1.19313 15.8277 1.0214 15.8338 0.857393 15.7942C0.69339 15.7546 0.543388 15.6708 0.423701 15.5518C0.304013 15.4329 0.21922 15.2835 0.178542 15.1197C0.137864 14.956 0.142858 14.7842 0.192982 14.6231L0.981814 11.9813C0.998945 11.9357 0.998945 11.8854 0.981814 11.8399C0.175049 10.3653 -0.146801 8.67418 0.0619456 7.0064C0.270692 5.33862 0.999428 3.77896 2.14473 2.54877C3.29002 1.31858 4.79369 0.480374 6.44232 0.153113C8.09094 -0.174149 9.80076 0.0261634 11.3291 0.725618C12.8574 1.42507 14.1267 2.58814 14.9566 4.04973C15.7865 5.51132 16.1351 7.19719 15.9527 8.86806C15.7703 10.5389 15.0663 12.1099 13.9405 13.358C12.8148 14.6061 11.3245 15.468 9.6813 15.8212C9.11823 15.9383 8.54478 15.9981 7.96968 15.9998ZM4.03296 13.864C4.25389 13.8671 4.47085 13.9232 4.66551 14.0278C5.62856 14.5559 6.70402 14.8459 7.80204 14.8736C8.90006 14.9013 9.98876 14.6658 10.9772 14.1869C11.9656 13.7079 12.8251 12.9994 13.4839 12.1205C14.1426 11.2416 14.5814 10.2178 14.7637 9.13465C14.946 8.05152 14.8665 6.94049 14.5318 5.89436C14.1971 4.84824 13.6169 3.8974 12.8397 3.12127C12.0625 2.34515 11.1108 1.76626 10.0642 1.43299C9.01766 1.09971 7.90652 1.02171 6.82364 1.20551C5.73866 1.38576 4.71284 1.82393 3.83244 2.48314C2.95205 3.14235 2.24282 4.00334 1.76442 4.99369C1.28602 5.98404 1.05243 7.07479 1.0833 8.17421C1.11417 9.27362 1.40859 10.3495 1.94181 11.3115C2.02565 11.4634 2.07867 11.6303 2.09783 11.8027C2.11698 11.9751 2.1019 12.1496 2.05344 12.3161L1.36135 14.6157L3.66087 13.9236C3.78131 13.8856 3.90668 13.8655 4.03296 13.864Z" fill="#F2F2F2"/>
</svg>
