<svg width="16" height="16" viewBox="0 0 16 16" fill="none" xmlns="http://www.w3.org/2000/svg">
<path d="M11.1797 1.41797H11.2041C12.3692 1.4148 13.4748 1.9328 14.2178 2.83008V2.83105C14.8047 3.54606 15.4864 4.86091 15.1699 7.08398L15.0928 7.54102C14.7236 9.44945 13.1098 11.2886 11.4102 12.7275C9.74178 14.14 8.13901 15.0444 8.02539 15.1074L8.02441 15.1084C8.00935 15.1168 7.99066 15.1167 7.97559 15.1084L7.97266 15.1064L7.63184 14.9082C7.05662 14.5623 5.84315 13.7889 4.5918 12.7295C2.89225 11.2907 1.27764 9.45094 0.907227 7.54102C0.422513 5.03898 1.15571 3.58986 1.78027 2.83203L1.78125 2.83301C2.52509 1.93344 3.63254 1.41404 4.7998 1.41797H4.8252C5.80963 1.38833 6.7683 1.73672 7.50391 2.3916L8.00195 2.83496L8.50098 2.3916C9.23659 1.73671 10.1952 1.38832 11.1797 1.41797Z" stroke="#F2F2F2" stroke-width="1.5"/>
</svg>
