<svg width="25" height="24" viewBox="0 0 25 24" fill="none" xmlns="http://www.w3.org/2000/svg">
<path d="M11.1771 1.33664C9.55054 1.64601 8.16304 2.58351 7.30054 3.95695C6.17085 5.75226 6.12866 8.02101 7.18804 9.8632C8.3646 11.9069 10.6943 13.0319 13.024 12.6804C15.274 12.3429 17.149 10.6554 17.7208 8.45695C18.138 6.84445 17.8615 5.19445 16.9333 3.80695C16.1318 2.60695 14.9787 1.8007 13.5302 1.42101C12.963 1.27101 11.749 1.22882 11.1771 1.33664ZM13.2208 2.87882C14.463 3.22101 15.4708 4.06945 16.0099 5.21789C16.2912 5.81789 16.399 6.32882 16.399 7.03195C16.3943 7.65539 16.3146 8.05851 16.0849 8.6257C15.6115 9.80695 14.4959 10.7773 13.2208 11.1194C12.6818 11.2648 11.6458 11.2601 11.1115 11.1148C9.8271 10.7679 8.72085 9.80695 8.24741 8.6257C8.01772 8.05851 7.93804 7.65539 7.93335 7.03195C7.92866 5.89289 8.31304 4.90851 9.06772 4.10695C9.68647 3.45539 10.4693 3.01476 11.3224 2.83195C11.7302 2.74757 12.8365 2.7757 13.2208 2.87882Z" fill="#F2F2F2"/>
<path d="M11.3459 14.279C11.2709 14.2884 11.0037 14.3212 10.76 14.3493C9.37718 14.504 7.76937 15.0571 6.60218 15.7884C4.92874 16.8243 3.70999 18.3056 3.17093 19.9556C2.83812 20.9587 2.73968 22.1259 2.95531 22.4165C3.09593 22.604 3.35843 22.7352 3.59749 22.7352C4.03343 22.7352 4.33812 22.3556 4.33812 21.8165C4.33812 21.1602 4.60999 20.1618 4.96156 19.5384C5.73499 18.1602 7.03812 17.0634 8.66937 16.4165C11.4491 15.3149 14.7819 15.6196 17.1584 17.1946C18.86 18.3196 19.8584 19.904 19.985 21.6852C20.0131 22.0696 20.0506 22.2477 20.1162 22.3649C20.4022 22.8524 21.0959 22.8665 21.3772 22.3837C21.5178 22.1446 21.5319 21.7602 21.4194 21.0102C20.9084 17.5556 17.5428 14.7665 13.3475 14.3212C12.7709 14.2602 11.7162 14.2368 11.3459 14.279Z" fill="#F2F2F2"/>
</svg>
