<svg width="24" height="24" viewBox="0 0 24 24" fill="none" xmlns="http://www.w3.org/2000/svg">
<path fill-rule="evenodd" clip-rule="evenodd" d="M20.7106 3.29645C20.9736 3.56207 21.0665 3.9522 20.9515 4.30785L15.4515 21.3078C15.3279 21.6896 14.9881 21.9606 14.5884 21.9961C14.1887 22.0316 13.8065 21.8247 13.6177 21.4706L9.75598 14.23L2.51263 10.1869C2.16369 9.99216 1.96421 9.60835 2.00533 9.21086C2.04644 8.81336 2.32026 8.47851 2.70168 8.35928L19.7017 3.04557C20.0585 2.93405 20.4476 3.03082 20.7106 3.29645ZM11.731 13.6832L14.2737 18.4508L17.77 7.64431L11.731 13.6832ZM16.4187 6.16717L5.5185 9.57425L10.3274 12.2584L16.4187 6.16717Z" fill="#666666" fill-opacity="0.2"/>
</svg>
