<svg width="62" height="63" viewBox="0 0 62 63" fill="none" xmlns="http://www.w3.org/2000/svg">
<g clip-path="url(#clip0_7032_78963)">
<path d="M59.8181 31.4982C60.7756 30.3832 61.4466 29.0514 61.7729 27.6183C62.0992 26.1853 62.0709 24.6943 61.6904 23.2746C61.31 21.855 60.589 20.5496 59.5898 19.4717C58.5907 18.3938 57.3437 17.576 55.9569 17.0892C56.2286 15.6447 56.1438 14.1558 55.7098 12.7515C55.2757 11.3473 54.5056 10.0701 53.4663 9.0309C52.4269 7.99167 51.1497 7.22174 49.7454 6.7879C48.3411 6.35406 46.8521 6.26942 45.4077 6.54132C44.9213 5.15424 44.1036 3.90686 43.0257 2.90749C41.9478 1.90811 40.6422 1.18694 39.2224 0.806595C37.8025 0.426248 36.3113 0.398221 34.8782 0.724944C33.445 1.05167 32.1133 1.72327 30.9986 2.68144C29.8836 1.72393 28.5518 1.05293 27.1187 0.72666C25.6857 0.400388 24.1946 0.428692 22.775 0.809116C21.3554 1.18954 20.05 1.9106 18.9721 2.90973C17.8942 3.90887 17.0764 5.1559 16.5895 6.54266C15.1452 6.2712 13.6564 6.35622 12.2523 6.79035C10.8483 7.22448 9.57133 7.99461 8.53226 9.03394C7.4932 10.0733 6.72339 11.3504 6.28962 12.7546C5.85585 14.1588 5.77121 15.6476 6.04304 17.0919C4.65628 17.5787 3.40924 18.3965 2.41011 19.4744C1.41097 20.5523 0.689911 21.8577 0.309487 23.2773C-0.0709374 24.697 -0.0992457 26.188 0.227027 27.621C0.553299 29.0541 1.22431 30.3859 2.18181 31.5009C1.22402 32.6159 0.552802 33.9478 0.226436 35.381C-0.0999288 36.8142 -0.071596 38.3054 0.308995 39.7252C0.689586 41.145 1.41092 42.4504 2.4104 43.5282C3.40988 44.606 4.65731 45.4236 6.04439 45.91C5.77232 47.3543 5.85686 48.8432 6.29069 50.2475C6.72451 51.6517 7.49451 52.9289 8.53384 53.9681C9.57316 55.0073 10.8504 55.7771 12.2547 56.2107C13.659 56.6444 15.1479 56.7288 16.5922 56.4565C17.0791 57.8433 17.8969 59.0903 18.9748 60.0894C20.0527 61.0886 21.358 61.8096 22.7777 62.1901C24.1973 62.5705 25.6883 62.5988 27.1214 62.2725C28.5545 61.9462 29.8863 61.2752 31.0013 60.3177C32.1163 61.2755 33.4482 61.9467 34.8814 62.2731C36.3146 62.5995 37.8058 62.5711 39.2256 62.1905C40.6454 61.81 41.9508 61.0886 43.0286 60.0891C44.1064 59.0897 44.924 57.8422 45.4104 56.4552C46.8548 56.7271 48.3437 56.6426 49.748 56.2087C51.1522 55.7749 52.4294 55.0049 53.4687 53.9656C54.508 52.9264 55.278 51.6492 55.7118 50.2449C56.1456 48.8406 56.2302 47.3517 55.9582 45.9073C57.3451 45.4206 58.5922 44.6028 59.5914 43.5249C60.5906 42.4469 61.3116 41.1415 61.692 39.7217C62.0723 38.302 62.1004 36.8109 61.7738 35.3778C61.4473 33.9448 60.776 32.6131 59.8181 31.4982Z" fill="#027348"/>
<path d="M25.4352 43.3319L16.8206 34.7227C16.4937 34.3952 16.3101 33.9514 16.3101 33.4887C16.3101 33.0259 16.4937 32.5821 16.8206 32.2547L17.8672 31.2067C18.1947 30.8798 18.6385 30.6962 19.1012 30.6962C19.564 30.6962 20.0078 30.8798 20.3352 31.2067L26.5973 37.4648L41.345 21.7928C41.6623 21.4561 42.1003 21.2591 42.5627 21.245C43.0252 21.2308 43.4744 21.4008 43.8116 21.7176L44.8864 22.7319C45.2235 23.0493 45.4208 23.4875 45.4349 23.9503C45.449 24.4131 45.2788 24.8626 44.9617 25.1999L27.9448 43.2929C27.7846 43.4636 27.5917 43.6004 27.3775 43.6952C27.1634 43.7899 26.9324 43.8405 26.6983 43.8442C26.4641 43.8478 26.2317 43.8043 26.0147 43.7163C25.7977 43.6283 25.6006 43.4976 25.4352 43.3319Z" fill="white"/>
</g>
<defs>
<clipPath id="clip0_7032_78963">
<rect width="62" height="62" fill="white" transform="translate(0 0.5)"/>
</clipPath>
</defs>
</svg>
