<svg width="26" height="26" viewBox="0 0 26 26" fill="none" xmlns="http://www.w3.org/2000/svg">
<path d="M25.0838 12.9993C25.4854 12.5317 25.7667 11.9732 25.9035 11.3723C26.0404 10.7713 26.0285 10.1461 25.869 9.55076C25.7094 8.95544 25.4071 8.40804 24.9881 7.95604C24.5691 7.50404 24.0462 7.16109 23.4647 6.95694C23.5786 6.35122 23.543 5.72684 23.361 5.13799C23.179 4.54913 22.8561 4.01357 22.4202 3.57777C21.9844 3.14198 21.4488 2.81911 20.8599 2.63719C20.271 2.45526 19.6466 2.41977 19.0409 2.53379C18.8369 1.95213 18.4941 1.42905 18.0421 1.00997C17.59 0.590888 17.0426 0.288473 16.4472 0.128978C15.8518 -0.0305176 15.2264 -0.0422709 14.6255 0.0947381C14.0245 0.231747 13.466 0.513377 12.9986 0.915177C12.531 0.513654 11.9725 0.232277 11.3716 0.0954576C10.7707 -0.041362 10.1454 -0.0294929 9.5501 0.130035C8.95478 0.289563 8.40738 0.591931 7.95538 1.01091C7.50338 1.42989 7.16043 1.95282 6.95628 2.53435C6.3506 2.42051 5.72629 2.45617 5.13751 2.63822C4.54872 2.82026 4.01325 3.14321 3.57753 3.57905C3.1418 4.01488 2.81899 4.55044 2.63709 5.13927C2.45519 5.7281 2.4197 6.35241 2.53369 6.95807C1.95216 7.16221 1.42923 7.50516 1.01025 7.95717C0.591269 8.40917 0.288899 8.95657 0.129371 9.55189C-0.0301565 10.1472 -0.0420274 10.7725 0.0947923 11.3734C0.231612 11.9743 0.512994 12.5328 0.914517 13.0004C0.512871 13.468 0.231403 14.0265 0.0945447 14.6275C-0.0423138 15.2285 -0.0304327 15.8538 0.129165 16.4492C0.288763 17.0445 0.59125 17.592 1.01037 18.0439C1.42949 18.4959 1.95259 18.8387 2.53425 19.0427C2.42017 19.6484 2.45562 20.2727 2.63754 20.8616C2.81946 21.4505 3.14235 21.986 3.57819 22.4218C4.01402 22.8576 4.54962 23.1804 5.1385 23.3623C5.72739 23.5441 6.35175 23.5795 6.95741 23.4653C7.16156 24.0468 7.5045 24.5698 7.95651 24.9888C8.40851 25.4077 8.95591 25.7101 9.55122 25.8696C10.1465 26.0292 10.7718 26.041 11.3727 25.9042C11.9737 25.7674 12.5322 25.486 12.9997 25.0845C13.4673 25.4861 14.0258 25.7676 14.6268 25.9045C15.2278 26.0413 15.8531 26.0294 16.4485 25.8698C17.0439 25.7102 17.5913 25.4077 18.0433 24.9886C18.4952 24.5695 18.8381 24.0464 19.0421 23.4647C19.6478 23.5788 20.2721 23.5433 20.861 23.3614C21.4499 23.1795 21.9854 22.8566 22.4213 22.4208C22.8571 21.985 23.1799 21.4494 23.3619 20.8605C23.5438 20.2717 23.5793 19.6473 23.4652 19.0416C24.0468 18.8375 24.5698 18.4946 24.9888 18.0425C25.4078 17.5905 25.7101 17.0431 25.8696 16.4477C26.0291 15.8524 26.0409 15.2271 25.9039 14.6261C25.767 14.0252 25.4855 13.4668 25.0838 12.9993Z" fill="#027348"/>
<path d="M10.6654 17.9615L7.05297 14.3513C6.91587 14.214 6.83887 14.0279 6.83887 13.8339C6.83887 13.6398 6.91587 13.4537 7.05297 13.3164L7.49185 12.8769C7.62917 12.7399 7.81528 12.6628 8.00932 12.6628C8.20336 12.6628 8.38948 12.7399 8.52679 12.8769L11.1527 15.5012L17.337 8.92929C17.4701 8.7881 17.6538 8.70547 17.8477 8.69956C18.0416 8.69364 18.23 8.76492 18.3714 8.89774L18.8221 9.3231C18.9635 9.45619 19.0462 9.63997 19.0521 9.83404C19.0581 10.0281 18.9867 10.2166 18.8537 10.358L11.7178 17.9452C11.6506 18.0168 11.5697 18.0742 11.4799 18.1139C11.3901 18.1536 11.2933 18.1748 11.1951 18.1764C11.0969 18.1779 10.9994 18.1596 10.9084 18.1227C10.8174 18.0858 10.7348 18.031 10.6654 17.9615Z" fill="white"/>
</svg>
